<?xml version="1.0" encoding="utf-8"?>
<!-- Generator: Adobe Illustrator 22.1.0, SVG Export Plug-In . SVG Version: 6.00 Build 0)  -->
<svg version="1.1" id="Layer_1" xmlns="http://www.w3.org/2000/svg" xmlns:xlink="http://www.w3.org/1999/xlink" x="0px" y="0px"
	 viewBox="0 0 240 80" style="enable-background:new 0 0 240 80;" xml:space="preserve">
<style type="text/css">
	.st0{fill:#555555;}
</style>
<g>
	<g>
		<g>
			<path class="st0" d="M53.3,54.8c-0.1,0-0.1,0-0.2,0c-0.4-0.1-0.7-0.5-0.7-1l6.2-32.4c0.1-0.4,0.4-0.7,0.8-0.7h0
				c0.4,0,0.7,0.3,0.8,0.7l6.1,32.4c0.1,0.4-0.2,0.9-0.7,1c-0.5,0.1-0.9-0.2-1-0.7L59.5,26l-5.4,28.2C54,54.6,53.7,54.8,53.3,54.8z"
				/>
		</g>
		<g>
			<path class="st0" d="M63.6,45.9h-8.2c-0.5,0-0.8-0.4-0.8-0.8s0.4-0.8,0.8-0.8h8.2c0.5,0,0.8,0.4,0.8,0.8S64.1,45.9,63.6,45.9z"/>
		</g>
	</g>
	<g>
		<path class="st0" d="M179.4,54.5c-4.3,0-7.7-3.5-7.7-7.7c0-4.3,3.5-7.7,7.7-7.7c4.3,0,7.7,3.5,7.7,7.7
			C187.2,51,183.7,54.5,179.4,54.5z M179.4,40.6c-3.4,0-6.1,2.7-6.1,6.1c0,3.4,2.7,6.1,6.1,6.1c3.4,0,6.1-2.7,6.1-6.1
			C185.5,43.4,182.8,40.6,179.4,40.6z"/>
	</g>
	<g>
		<g>
			<path class="st0" d="M85.8,54.4c-0.5,0-0.8-0.4-0.8-0.8V18c0-0.5,0.4-0.8,0.8-0.8s0.8,0.4,0.8,0.8v35.5
				C86.7,54,86.3,54.4,85.8,54.4z"/>
		</g>
		<g>
			<g>
				<path class="st0" d="M77.5,34.3c0,0-0.1,0-0.1,0c-0.9-0.1-1.8-0.5-2.6-1c-1.4-1-2.3-2.5-2.6-4.4c-0.5-3.1,1.3-6.1,4.4-7.2
					c2.9-1.1,6.3-0.2,9.3,0.7c0.2,0,0.3,0.1,0.5,0.1c4.2,0.8,8.8,0.7,12.1-0.4c4.6-1.4,7.8-6.4,6.9-10.6c-0.5-2.3-2.2-4.1-4.7-4.9
					c-2.5-0.7-5.1-0.1-7,1.8c-1.7,1.7-2.4,4.8-1.5,6.9l0.1,0.2c0.5,1.1,0.8,2.1,2.7,3.4c0.4,0.3,0.4,0.8,0.2,1.1
					c-0.3,0.4-0.8,0.4-1.1,0.2c-2.2-1.6-2.7-2.9-3.3-4.1L90.6,16c-1.1-2.7-0.3-6.5,1.9-8.7c2.3-2.3,5.5-3.1,8.6-2.2
					c3,0.9,5.2,3.2,5.8,6.1c1.2,5.6-3.2,11-8,12.5c-3.6,1.1-8.3,1.3-12.9,0.4c-0.2,0-0.4-0.1-0.6-0.2c-2.7-0.8-5.8-1.7-8.2-0.8
					c-2.3,0.9-3.7,3.1-3.3,5.4c0.2,1.4,0.9,2.5,1.9,3.3c0.6,0.4,1.2,0.6,1.9,0.7c0.4,0.1,0.8,0.5,0.7,0.9
					C78.3,34,77.9,34.3,77.5,34.3z"/>
			</g>
			<g>
				<path class="st0" d="M77.9,34.2c-0.4,0-0.8-0.3-0.8-0.8c0-0.5,0.3-0.8,0.8-0.9c0.6,0,1.1-0.2,1.6-0.5c1.4-0.8,1.9-2.6,1.1-4
					c-0.3-0.5-0.7-0.9-1.3-1c-0.6-0.2-1.2-0.1-1.7,0.2c-0.4,0.2-0.9,0.1-1.1-0.3c-0.2-0.4-0.1-0.9,0.3-1.1c0.9-0.5,1.9-0.6,2.9-0.3
					c1,0.3,1.8,0.9,2.3,1.8c1.2,2.2,0.4,5-1.8,6.2C79.5,34,78.8,34.2,77.9,34.2C77.9,34.2,77.9,34.2,77.9,34.2z"/>
			</g>
		</g>
	</g>
	<g>
		<g>
			<path class="st0" d="M70.5,54.4c-0.5,0-0.8-0.4-0.8-0.8V40.4c0-0.5,0.4-0.8,0.8-0.8s0.8,0.4,0.8,0.8v13.1
				C71.3,54,70.9,54.4,70.5,54.4z"/>
		</g>
		<g>
			<path class="st0" d="M70.5,47.8c-0.5,0-0.8-0.4-0.8-0.8c0-4.3,3.5-7.7,7.7-7.7c1.4,0,2.7,0.4,3.9,1c0.4,0.2,0.5,0.7,0.3,1.1
				c-0.2,0.4-0.7,0.5-1.1,0.3c-0.9-0.5-2-0.8-3-0.8c-3.4,0-6.1,2.7-6.1,6.1C71.3,47.4,70.9,47.8,70.5,47.8z"/>
		</g>
	</g>
	<g>
		<path class="st0" d="M123.7,70h0.7v3.3c0,0.8,0.5,1.2,1.3,1.2c0.8,0,1.3-0.5,1.3-1.3V70h0.7v3.3c0,1.1-0.8,1.9-2,1.9
			c-1.2,0-2-0.8-2-1.9V70z"/>
		<path class="st0" d="M130.5,70h0.7l2.3,3.3c0.2,0.3,0.4,0.7,0.4,0.7h0c0,0-0.1-0.5-0.1-0.7V70h0.7v5.1h-0.7l-2.3-3.3
			c-0.2-0.3-0.4-0.7-0.4-0.7h0c0,0,0.1,0.5,0.1,0.7v3.3h-0.7V70z"/>
		<path class="st0" d="M137.5,70h0.7v5.1h-0.7V70z"/>
		<path class="st0" d="M143.3,69.9c1.5,0,2.6,1.1,2.6,2.6c0,0.6-0.2,1.2-0.6,1.7l0.6,0.6l-0.4,0.5l-0.6-0.6c-0.4,0.4-1,0.6-1.6,0.6
			c-1.5,0-2.6-1.2-2.6-2.7C140.7,71.1,141.9,69.9,143.3,69.9z M143.3,74.6c0.4,0,0.8-0.1,1.1-0.4l-0.6-0.6l0.4-0.5l0.6,0.6
			c0.2-0.3,0.4-0.7,0.4-1.2c0-1.1-0.8-2-1.9-2c-1.1,0-1.9,0.8-1.9,2C141.4,73.7,142.3,74.6,143.3,74.6z"/>
		<path class="st0" d="M148.5,70h0.7v3.3c0,0.8,0.5,1.2,1.3,1.2c0.8,0,1.3-0.5,1.3-1.3V70h0.7v3.3c0,1.1-0.8,1.9-2,1.9
			c-1.2,0-2-0.8-2-1.9V70z"/>
		<path class="st0" d="M155.3,70h3v0.6H156v1.6h1.8v0.6H156v1.7h2.4v0.6h-3.1V70z"/>
		<path class="st0" d="M164.3,74c0,0,0.5,0.6,1.3,0.6c0.5,0,0.9-0.3,0.9-0.8c0-1.1-2.5-0.9-2.5-2.4c0-0.8,0.7-1.4,1.7-1.4
			c1,0,1.5,0.5,1.5,0.5l-0.3,0.6c0,0-0.5-0.4-1.1-0.4c-0.5,0-0.9,0.3-0.9,0.7c0,1.1,2.5,0.8,2.5,2.4c0,0.8-0.6,1.4-1.6,1.4
			c-1.1,0-1.7-0.7-1.7-0.7L164.3,74z"/>
		<path class="st0" d="M169.7,70h0.7v2.3h2.7V70h0.7v5.1h-0.7v-2.3h-2.7v2.3h-0.7V70z"/>
		<path class="st0" d="M178.9,69.9c1.5,0,2.6,1.1,2.6,2.6c0,1.5-1.1,2.7-2.6,2.7c-1.5,0-2.6-1.2-2.6-2.7
			C176.3,71.1,177.4,69.9,178.9,69.9z M178.9,74.6c1,0,1.9-0.9,1.9-2c0-1.1-0.8-2-1.9-2c-1,0-1.9,0.8-1.9,2
			C177,73.7,177.9,74.6,178.9,74.6z"/>
		<path class="st0" d="M184.1,70h1.9c0.9,0,1.6,0.6,1.6,1.6c0,1-0.7,1.6-1.6,1.6h-1.2v1.9h-0.7V70z M185.8,72.6c0.6,0,1-0.4,1-1
			s-0.4-1-1-1h-1v2H185.8z"/>
	</g>
	<g>
		<path class="st0" d="M86.3,62.2h-33c-0.5,0-0.8-0.4-0.8-0.8c0-0.5,0.4-0.8,0.8-0.8h33c0.5,0,0.8,0.4,0.8,0.8
			C87.1,61.8,86.7,62.2,86.3,62.2z"/>
	</g>
	<g>
		<path class="st0" d="M186.4,62.2h-62.5c-0.5,0-0.8-0.4-0.8-0.8c0-0.5,0.4-0.8,0.8-0.8h62.5c0.5,0,0.8,0.4,0.8,0.8
			C187.2,61.8,186.8,62.2,186.4,62.2z"/>
	</g>
	<g>
		<g>
			<path class="st0" d="M105.1,71.4c-8.2,0-15-6.7-15-15c0-5.8,3.4-11.1,8.6-13.6c0.3-0.1,0.5-0.2,0.8-0.3c0.4-0.2,0.9,0,1.1,0.5
				c0.2,0.4,0,0.9-0.5,1.1c-0.2,0.1-0.5,0.2-0.7,0.3c-4.7,2.2-7.7,6.9-7.7,12.1c0,7.3,6,13.3,13.3,13.3c5.5,0,10.5-3.4,12.4-8.6
				c0.2-0.4,0.6-0.6,1.1-0.5c0.4,0.2,0.6,0.6,0.5,1.1C116.8,67.5,111.2,71.4,105.1,71.4z"/>
		</g>
		<g>
			<path class="st0" d="M105.1,71c-4.3,0-8.6-1.8-11.7-5.3c-0.3-0.3-0.3-0.9,0.1-1.2c0.3-0.3,0.9-0.3,1.2,0.1
				c5.1,5.7,13.7,6.3,19.6,1.4c0.1-0.1,0.2-0.2,0.3-0.3c4.6-4.1,4.9-11.1,0.9-15.7c-3.2-3.6-8.7-3.9-12.3-0.7
				c-1.4,1.2-2.2,2.9-2.3,4.7c-0.1,1.8,0.5,3.6,1.7,4.9c1.9,2.2,5.3,2.4,7.5,0.4c0.3-0.3,0.9-0.3,1.2,0.1c0.3,0.3,0.3,0.9-0.1,1.2
				c-2.8,2.5-7.2,2.3-9.8-0.5c-1.5-1.7-2.3-3.9-2.1-6.1c0.1-2.3,1.1-4.3,2.8-5.8c4.3-3.8,10.8-3.5,14.6,0.8c4.7,5.2,4.2,13.3-1,18
				c-0.1,0.1-0.2,0.2-0.3,0.3C112.3,69.8,108.7,71,105.1,71z"/>
		</g>
		<g>
			<path class="st0" d="M100,44.1c-3.6,0-6.6-3-6.6-6.6c0-3.4,2.5-6.2,5.8-6.6V28c0-0.5,0.4-0.8,0.8-0.8s0.8,0.4,0.8,0.8v3.7
				c0,0.5-0.4,0.8-0.8,0.8c-2.7,0-5,2.2-5,5c0,2.7,2.2,5,5,5c0.5,0,0.8,0.4,0.8,0.8C100.8,43.7,100.5,44.1,100,44.1z"/>
		</g>
		<g>
			<path class="st0" d="M100,75.3c-0.5,0-0.8-0.4-0.8-0.8v-4.3c0-0.5,0.4-0.8,0.8-0.8s0.8,0.4,0.8,0.8v4.3
				C100.8,74.9,100.5,75.3,100,75.3z"/>
		</g>
	</g>
	<g>
		<g>
			<path class="st0" d="M123.9,55.4c-0.3,0-0.6-0.2-0.8-0.5c-0.2-0.4,0-0.9,0.5-1.1c6.4-2.6,10.5-8.7,10.5-15.6
				c0-9.3-7.5-16.8-16.8-16.8c-1.3,0-2.6,0.2-3.9,0.5c-0.4,0.1-0.9-0.2-1-0.6c-0.1-0.4,0.2-0.9,0.6-1c1.4-0.3,2.8-0.5,4.3-0.5
				c10.2,0,18.4,8.3,18.4,18.4c0,7.6-4.5,14.3-11.5,17.1C124.1,55.3,124,55.4,123.9,55.4z"/>
		</g>
		<g>
			<path class="st0" d="M113.7,38.2c-1.9,0-3.8-0.7-5.3-2.2c-1.7-1.7-2.7-4-2.7-6.5s1-4.7,2.7-6.5c2.1-2.1,4.9-3.3,7.9-3.3
				c0.5,0,0.8,0.4,0.8,0.8s-0.4,0.8-0.8,0.8c-2.6,0-5,1-6.8,2.8c-1.4,1.4-2.2,3.3-2.2,5.3c0,2,0.8,3.9,2.2,5.3c2.3,2.3,6,2.3,8.3,0
				c1.8-1.8,1.8-4.6,0-6.4c-1.3-1.3-3.6-1.3-4.9,0c-0.3,0.3-0.8,0.3-1.2,0c-0.3-0.3-0.3-0.8,0-1.2c2-2,5.2-2,7.2,0
				c2.4,2.4,2.4,6.3,0,8.7C117.5,37.5,115.6,38.2,113.7,38.2z"/>
		</g>
		<g>
			<path class="st0" d="M123.9,55.4c-0.5,0-0.8-0.4-0.8-0.8V22.3c0-0.5,0.4-0.8,0.8-0.8s0.8,0.4,0.8,0.8v32.2
				C124.7,55,124.3,55.4,123.9,55.4z"/>
		</g>
	</g>
	<g>
		<g>
			<path class="st0" d="M163.1,54.7c-1.6,0-3.1-0.5-4.5-1.4c-1.7-1.2-2.8-3-3.2-5c-0.4-2,0.1-4.1,1.3-5.8c1.2-1.7,3-2.8,5-3.2
				c2.9-0.5,5.6,0.5,7.2,2.6c0.3,0.4,0.2,0.9-0.2,1.2c-0.4,0.3-0.9,0.2-1.2-0.2c-1.2-1.6-3.3-2.4-5.6-2c-1.6,0.3-3,1.2-3.9,2.5
				c-0.9,1.3-1.3,2.9-1,4.6c0.3,1.6,1.2,3,2.5,3.9c1.3,0.9,2.9,1.3,4.6,1c1.4-0.2,2.6-0.9,3.5-2c0.3-0.3,0.8-0.4,1.2-0.1
				c0.3,0.3,0.4,0.8,0.1,1.2c-1.2,1.3-2.7,2.2-4.5,2.5C164,54.7,163.6,54.7,163.1,54.7z"/>
		</g>
	</g>
	<g>
		<g>
			<path class="st0" d="M145.6,54.7c-4.3,0-7.7-3.5-7.7-7.7s3.5-7.7,7.7-7.7c3.7,0,6.7,2.3,7.5,5.7c0.1,0.4-0.2,0.9-0.6,1
				c-0.4,0.1-0.9-0.2-1-0.6c-0.6-2.6-3-4.4-5.9-4.4c-3.4,0-6.1,2.7-6.1,6.1c0,3.4,2.7,6.1,6.1,6.1c2,0,3.9-1,5.1-2.7
				c0.3-0.4,0.8-0.5,1.1-0.2c0.4,0.3,0.5,0.8,0.2,1.1C150.6,53.4,148.2,54.7,145.6,54.7z"/>
		</g>
		<g>
			<path class="st0" d="M152,45.9h-12.8c-0.5,0-0.8-0.4-0.8-0.8s0.4-0.8,0.8-0.8H152c0.5,0,0.8,0.4,0.8,0.8S152.5,45.9,152,45.9z"/>
		</g>
	</g>
</g>
</svg>
