<?xml version="1.0" encoding="utf-8"?>
<!-- Generator: Adobe Illustrator 22.1.0, SVG Export Plug-In . SVG Version: 6.00 Build 0)  -->
<svg version="1.1" id="Layer_1" xmlns="http://www.w3.org/2000/svg" xmlns:xlink="http://www.w3.org/1999/xlink" x="0px" y="0px"
	 viewBox="0 0 240 80" style="enable-background:new 0 0 240 80;" xml:space="preserve">
<style type="text/css">
	.st0{display:none;}
	.st1{fill:#555555;}
</style>
<g id="guides" class="st0">
</g>
<g>
	<path class="st1" d="M21.8,30.6c-2.2,2.2-3.3,5.2-3.3,9c0,3.7,1.3,7,4,9.7c2.7,2.7,5.9,4,9.7,4c3.7,0,7-1.3,9.7-4
		c2.7-2.7,4-5.9,4-9.7c0-1.4-0.2-2.8-0.6-4.1l-0.3-0.9l-4.3,2.2l0.1,0.6C41,38,41,38.8,41,39.5c0,2.5-0.9,4.5-2.6,6.3
		c-1.8,1.8-3.8,2.6-6.3,2.6c-2.2,0-4.1-0.7-5.7-2.1l15.3-15.3l-0.5-0.5c-2.7-2.7-5.9-4-9.7-4C27.7,26.6,24.5,27.9,21.8,30.6z
		 M23.7,42.4c-0.3-0.9-0.4-1.8-0.4-2.8c0-2.5,0.6-4.3,1.9-5.6c1.8-1.8,3.8-2.6,6.3-2.6c1,0,2,0.1,2.8,0.4L23.7,42.4z"/>
	<path class="st1" d="M70.7,29.5c-2.5-2.2-5.5-3.3-8.9-3.3c-3.8,0-7,1.3-9.7,4c-2.7,2.6-4,5.9-4,9.7s1.3,7,4,9.7
		c2.6,2.6,5.9,4,9.7,4c3.4,0,6.4-1.1,8.9-3.3v3.3h4.7V16.5h-4.7V29.5z M68.1,33.6c1.7,1.7,2.6,3.8,2.6,6.2V40c0,2.4-0.9,4.5-2.6,6.2
		c-1.8,1.8-3.8,2.6-6.3,2.6c-2.5,0-4.5-0.9-6.3-2.6c-1.8-1.8-2.6-3.8-2.6-6.3c0-2.5,0.9-4.5,2.6-6.3c1.8-1.8,3.8-2.6,6.3-2.6
		C64.3,31,66.3,31.8,68.1,33.6z"/>
	<path class="st1" d="M98.2,41.5c0,2-0.7,3.7-2.2,5.2c-1.5,1.4-3.3,2.1-5.4,2.1c-2.1,0-3.9-0.7-5.4-2.1c-1.5-1.4-2.2-3.1-2.2-5.2
		V26.2h-5v15.3c0,3.3,1.2,6.2,3.7,8.5c2.4,2.3,5.4,3.5,8.9,3.5c3.5,0,6.5-1.2,8.9-3.5c2.4-2.3,3.7-5.2,3.7-8.5V26.2h-5V41.5z"/>
	<path class="st1" d="M151.5,29.5c-2.5-2.2-5.5-3.3-8.9-3.3c-3.8,0-7,1.3-9.7,4c-2.7,2.7-4,5.9-4,9.7c0,3.8,1.3,7,4,9.7
		c2.6,2.6,5.9,4,9.7,4c3.4,0,6.4-1.1,8.9-3.3v3.3h4.7V26.2h-4.7V29.5z M148.9,33.6c1.7,1.7,2.6,3.8,2.6,6.2V40
		c0,2.4-0.9,4.5-2.6,6.2c-1.8,1.8-3.8,2.6-6.3,2.6c-2.5,0-4.5-0.9-6.3-2.6c-1.8-1.8-2.6-3.8-2.6-6.3c0-2.5,0.9-4.5,2.6-6.3
		c1.8-1.8,3.8-2.6,6.3-2.6C145.1,31,147.1,31.8,148.9,33.6z"/>
	<path class="st1" d="M172.6,26.2c-3.4,0-6.4,1.1-8.9,3.3v-3.3h-4.7v37h4.7v-13c2.5,2.2,5.5,3.3,8.9,3.3c3.8,0,7-1.3,9.7-4
		c2.7-2.7,4-5.9,4-9.7c0-3.8-1.3-7-4-9.7C179.6,27.6,176.3,26.2,172.6,26.2z M181.5,39.9c0,2.5-0.9,4.5-2.6,6.3
		c-1.8,1.8-3.8,2.6-6.3,2.6c-2.5,0-4.5-0.9-6.3-2.6c-1.7-1.7-2.6-3.8-2.6-6.2v-0.2c0-2.4,0.9-4.5,2.6-6.2c1.8-1.8,3.8-2.6,6.3-2.6
		c2.5,0,4.5,0.9,6.3,2.6C180.6,35.3,181.5,37.4,181.5,39.9z"/>
	<path class="st1" d="M201.6,26.2c-3.4,0-6.4,1.1-8.9,3.3v-3.3h-4.7v37h4.7v-13c2.5,2.2,5.5,3.3,8.9,3.3c3.8,0,7-1.3,9.7-4
		c2.7-2.7,4-5.9,4-9.7s-1.3-7-4-9.7C208.6,27.6,205.3,26.2,201.6,26.2z M210.5,39.9c0,2.5-0.9,4.5-2.6,6.3c-1.8,1.8-3.8,2.6-6.3,2.6
		c-2.5,0-4.5-0.9-6.3-2.6c-1.7-1.7-2.6-3.8-2.6-6.2v-0.2c0-2.4,0.9-4.5,2.6-6.2c1.8-1.8,3.8-2.6,6.3-2.6c2.5,0,4.5,0.9,6.3,2.6
		C209.6,35.3,210.5,37.4,210.5,39.9z"/>
	<path class="st1" d="M221.9,46.9c-0.8-0.8-1.8-1.2-2.9-1.2c-1.1,0-2.1,0.4-2.9,1.2c-0.8,0.8-1.2,1.8-1.2,2.9c0,1.1,0.4,2.1,1.2,2.9
		c0.8,0.8,1.7,1.2,2.9,1.2c1.1,0,2.1-0.4,2.9-1.2c0.8-0.8,1.2-1.7,1.2-2.9C223.1,48.6,222.7,47.6,221.9,46.9z"/>
	<path class="st1" d="M113.7,28.1c-0.8-0.8-1.8-1.2-2.9-1.2c-1.1,0-2.1,0.4-2.9,1.2c-0.8,0.8-1.2,1.8-1.2,2.9c0,1.1,0.4,2.1,1.2,2.9
		c0.8,0.8,1.7,1.2,2.9,1.2c1.1,0,2.1-0.4,2.9-1.2c0.8-0.8,1.2-1.7,1.2-2.9C114.9,29.9,114.5,28.9,113.7,28.1z"/>
	<rect x="98.2" y="26.1" class="st1" width="5" height="27.1"/>
	<polygon class="st1" points="117,39.9 110.6,39.9 123.9,53.2 130.8,53.2 	"/>
	<polygon class="st1" points="117,39.9 110.6,39.9 123.9,26.6 130.8,26.6 	"/>
</g>
</svg>
