<?xml version="1.0" encoding="utf-8"?>
<!-- Generator: Adobe Illustrator 22.1.0, SVG Export Plug-In . SVG Version: 6.00 Build 0)  -->
<svg version="1.1" id="Layer_1" xmlns="http://www.w3.org/2000/svg" xmlns:xlink="http://www.w3.org/1999/xlink" x="0px" y="0px"
	 viewBox="0 0 240 80" style="enable-background:new 0 0 240 80;" xml:space="preserve">
<style type="text/css">
	.st0{display:none;}
	.st1{fill:#555555;}
</style>
<g id="guides" class="st0">
</g>
<g>
	<g>
		<path class="st1" d="M20.2,24.7c-2.1,0-5.1,1-5,3c-1.3,2.5,2.9,5.4,5,3.5C22.8,29,22.9,24.7,20.2,24.7z"/>
	</g>
	<g>
		<path class="st1" d="M31,69.7c-1.5-1.8-5.1-1.5-6.2,0.6l-0.3,0.8c-0.5,2.3,2,4.7,4.5,4.2C31.3,74.7,32.5,71.5,31,69.7z"/>
	</g>
	<g>
		<path class="st1" d="M64.4,12.1c-2.4-0.5-4.7,0-5.9,1.3c-1.5,1.8-1.5,4.5-0.1,6.3c1.4,1.8,4.2,2.5,6.4,1.7
			c1.8-0.7,3.2-2.3,3.4-4.1C68.5,15,66.8,12.6,64.4,12.1z"/>
	</g>
	<g>
		<path class="st1" d="M82.2,31.5c-1.2-0.6-3.1-0.7-3.9,0.4c-1.7,2.6-0.6,4.3,1,5.2c1.5,0.9,3.8,0.2,4.6-1.3
			C84.6,34.3,83.8,32.3,82.2,31.5z"/>
	</g>
	<g>
		<path class="st1" d="M43.2,6.3c-0.4-1.6-2.2-2-3.8-1.3c-1.6,0.7-0.9,3.7,0.7,4.2C41.9,9.7,43.7,7.9,43.2,6.3z"/>
	</g>
	<g>
		<path class="st1" d="M58.9,37.9c-0.8-1.4-3.3-1.6-4.4-0.3c-0.9,1.6,0.5,3.6,2.2,3.7C58.4,41.4,59.7,39.3,58.9,37.9z"/>
	</g>
	<g>
		<path class="st1" d="M62.5,55.3c-2.6-0.6-5.5,1-6.3,3.4l0.1-0.1c-0.3,1-0.4,2.1,0,3c0.6,1.6,2.1,2.9,3.9,3.2
			c2.6,0.5,5.5-1.2,6.2-3.7C66.9,58.7,65.1,55.9,62.5,55.3z"/>
	</g>
	<g>
		<path class="st1" d="M38.4,41.9c-1-1.6-3.5-2.2-5.3-1.3c-1.4,0.5-2,3.1-1.1,4.8c0.8,1.7,3.4,2.4,5.1,1.5
			C38.8,45.9,39.4,43.5,38.4,41.9z"/>
	</g>
	<g>
		<path class="st1" d="M90.6,32.6h-1.3v-19h10.4v1.2h-9.1v8.1h8.6v1.2h-8.6V32.6z"/>
		<path class="st1" d="M106.6,24.3v8.3h-1.3v-19h4.5c2.4,0,4.1,0.4,5.2,1.3s1.7,2.2,1.7,3.9c0,1.3-0.3,2.4-1,3.2
			c-0.7,0.9-1.7,1.5-3.1,1.9l5.2,8.7h-1.6l-4.9-8.3H106.6z M106.6,23.1h3.6c1.6,0,2.8-0.4,3.7-1.1c0.9-0.7,1.3-1.8,1.3-3.2
			c0-1.4-0.4-2.5-1.3-3.2s-2.3-1-4.2-1h-3.1V23.1z"/>
		<path class="st1" d="M134.2,32.6h-10.4v-19h10.4v1.2h-9.1V22h8.6v1.2h-8.6v8.2h9.1V32.6z"/>
		<path class="st1" d="M151.5,32.6h-10.4v-19h10.4v1.2h-9.1V22h8.6v1.2h-8.6v8.2h9.1V32.6z"/>
		<path class="st1" d="M173,22.9c0,3.2-0.8,5.6-2.5,7.2s-4.1,2.5-7.4,2.5h-4.6v-19h5.1c3,0,5.3,0.8,6.9,2.4S173,19.8,173,22.9z
			 M171.5,22.9c0-2.7-0.7-4.8-2.1-6.1c-1.4-1.4-3.4-2.1-6.1-2.1h-3.5v16.7h3.1C168.7,31.4,171.5,28.6,171.5,22.9z"/>
		<path class="st1" d="M196,23c0,3-0.8,5.4-2.3,7.2c-1.5,1.8-3.6,2.6-6.2,2.6c-2.6,0-4.7-0.9-6.2-2.6S179,26.1,179,23
			c0-3,0.8-5.4,2.3-7.1s3.6-2.6,6.2-2.6c2.7,0,4.7,0.9,6.2,2.6S196,20,196,23z M180.4,23c0,2.7,0.6,4.8,1.8,6.3
			c1.2,1.5,3,2.2,5.2,2.2c2.3,0,4-0.7,5.2-2.2c1.2-1.5,1.8-3.6,1.8-6.3c0-2.7-0.6-4.8-1.8-6.3c-1.2-1.5-3-2.2-5.2-2.2
			c-2.3,0-4,0.7-5.2,2.2C181,18.2,180.4,20.3,180.4,23z"/>
		<path class="st1" d="M211.4,32.6L204.3,15h-0.1c0.1,1.1,0.1,2.2,0.1,3.3v14.3H203v-19h2.1l6.7,16.7h0.1l6.7-16.7h2v19h-1.3V18.2
			c0-1,0.1-2,0.2-3.1h-0.1l-7.1,17.5H211.4z"/>
	</g>
	<g>
		<path class="st1" d="M108.2,63.1c-1.5,1.2-2.9,2.1-4.4,2.7s-3.1,0.9-4.9,0.9c-2,0-3.8-0.4-5.5-1.1c-1.7-0.7-3.2-1.8-4.5-3
			c-1.3-1.3-2.3-2.8-3-4.5c-0.7-1.7-1.1-3.5-1.1-5.4c0-2,0.4-3.8,1.1-5.5c0.7-1.7,1.7-3.2,3-4.5c1.3-1.3,2.8-2.3,4.5-3
			c1.7-0.7,3.6-1.1,5.5-1.1c1.5,0,2.9,0.2,4.2,0.7c1.3,0.5,2.8,1.2,4.3,2.3l-1.9,1.5c-1.1-0.8-2.2-1.3-3.2-1.6
			c-1-0.3-2.2-0.4-3.4-0.4c-1.6,0-3.1,0.3-4.6,0.9c-1.4,0.6-2.6,1.5-3.7,2.5c-1,1.1-1.9,2.3-2.5,3.7c-0.6,1.4-0.9,3-0.9,4.6
			c0,1.6,0.3,3.1,0.9,4.5c0.6,1.4,1.4,2.6,2.5,3.7c1,1.1,2.3,1.9,3.7,2.5c1.4,0.6,2.9,0.9,4.6,0.9c0.7,0,1.4,0,2-0.1
			c0.6-0.1,1.2-0.3,1.8-0.5c0.6-0.2,1.2-0.5,1.7-0.9c0.6-0.4,1.1-0.8,1.8-1.3L108.2,63.1z"/>
		<path class="st1" d="M140.7,51.3h-17.3v15.2h-2.4V51.3c-0.1,0-0.2,0-0.5,0c-0.3,0-0.7-0.1-1.1-0.2c-0.4-0.1-0.9-0.3-1.4-0.5
			c-0.5-0.2-0.9-0.5-1.3-0.9l1.8-1.7c0.3,0.2,0.6,0.4,1,0.6c0.4,0.2,0.9,0.2,1.6,0.3V38.8h2.4v10.1h17.3V38.8h2.4v27.7h-2.4V51.3z"
			/>
		<path class="st1" d="M156.8,38.8v27.7h-2.4V38.8H156.8z"/>
		<path class="st1" d="M188.4,64v2.4h-19.9V38.8h2.4V64H188.4z"/>
		<path class="st1" d="M211.2,38.8c1.9,0,3.7,0.4,5.4,1.1c1.7,0.7,3.1,1.7,4.4,3c1.3,1.3,2.3,2.7,3,4.4c0.7,1.7,1.1,3.5,1.1,5.4
			c0,1.9-0.4,3.7-1.1,5.4c-0.7,1.7-1.7,3.1-3,4.4c-1.3,1.2-2.7,2.2-4.4,3c-1.7,0.7-3.5,1.1-5.4,1.1h-8.9V41.2c-0.1,0-0.2,0-0.5,0
			c-0.3,0-0.7-0.1-1.1-0.2c-0.4-0.1-0.9-0.3-1.4-0.5c-0.5-0.2-0.9-0.5-1.3-0.9l1.8-1.7c0.3,0.2,0.6,0.4,1,0.6
			c0.4,0.2,0.9,0.2,1.6,0.3H211.2z M222.6,52.6c0-1.6-0.3-3-0.9-4.4c-0.6-1.4-1.4-2.6-2.5-3.6c-1-1-2.2-1.9-3.6-2.5
			c-1.4-0.6-2.9-0.9-4.4-0.9h-6.5V64h6.5c1.6,0,3-0.3,4.4-0.9c1.4-0.6,2.6-1.4,3.6-2.4c1-1,1.9-2.2,2.5-3.6
			C222.3,55.7,222.6,54.2,222.6,52.6z"/>
	</g>
</g>
</svg>
