<?xml version="1.0" encoding="utf-8"?>
<!-- Generator: Adobe Illustrator 22.1.0, SVG Export Plug-In . SVG Version: 6.00 Build 0)  -->
<svg version="1.1" id="Layer_1" xmlns="http://www.w3.org/2000/svg" xmlns:xlink="http://www.w3.org/1999/xlink" x="0px" y="0px"
	 viewBox="0 0 240 80" style="enable-background:new 0 0 240 80;" xml:space="preserve">
<style type="text/css">
	.st0{fill:#555555;}
</style>
<g>
	<path class="st0" d="M64.5,4.7"/>
	<g>
		<path class="st0" d="M167.7,29.5c-0.3-0.1-0.5-0.3-0.8-0.4c3-1.3,5.5-3.9,6.4-7c0.9-3.1,0.3-6.6-1.7-9.1c-1.8-2.2-4.5-3.7-7.3-4.6
			c-1.8-0.6-3.6-1.1-5.4-1.3c-1.8-0.3-3.5-0.3-5.3-0.4c-7.3-0.2-14.9,1.5-19.4,7c-1.1,1.3-1.9,2.7-2.6,4.2c-0.7,1.5-1.2,3.1-1.4,4.7
			c-0.1,0.5-0.1,0.9-0.2,1.4c-0.1,2.1,0.1,4.3,1.1,6.2c1,1.9,2.7,3.5,4.8,4c0.3,0.1,0.5,0.1,0.8,0.1c0.1,0,0.1,0,0.2,0c0,0,0,0,0,0
			c0.4,0,0.8-0.1,1.2-0.2c0.3-0.1,0.5-0.3,0.6-0.5c0.4-0.4,0.7-1,0.7-1.6c0-1.3-1.1-2.4-2.5-2.4c-0.5,0-1,0.2-1.5,0.5
			c-1.2-1.2-1.7-3-1.7-4.6c-0.2-4.9,2.4-9.7,6.4-12.8c4-3.1,9-3.3,14.1-2.9c-5.1,11.1-6.5,23.5-11.6,34.6c-2.3-1.8-5-3.3-8-3.8
			c-3-0.5-6.2-0.1-8.6,1.7c-2.4,1.7-3.8,4.8-3,7.6c0.9,3.5,5,5.6,8.7,5.5c3.8-0.1,7.2-2,10.2-4.3c0.4-0.3,0.8-0.6,1.2-0.7
			c0.9-0.2,1.7,0.4,2.5,0.9c4.7,3.4,11,4.8,16.6,3.4s10.5-6,11.7-11.5C174.9,38,172.4,32.2,167.7,29.5z M131,51.9
			c-0.2,0-0.3,0-0.5,0c-2.3-0.1-3.8-1.3-4-3.2c-0.3-2,0.8-3.6,3-4.4c1-0.4,2-0.5,3-0.5c2.8,0,5.8,1.3,7.9,3.6
			C137.5,50.4,134.5,51.9,131,51.9z M168.1,47.3c-2.5,3.1-6.4,4.8-10.4,4.7c-4.2-0.1-8.1-1.6-11.7-4.6c-0.7-0.6-0.8-1-0.4-1.8
			c2.7-4.7,8.8-28.9,11-32.4c1.1-1.8,1.6-2.8,3-2.8c0.7,0,1.5,0.2,2.6,0.6c1.4,0.5,2.7,1.1,4,1.8c2.8,1.7,4.2,4,4,6.8
			c-0.2,3.9-3.1,5.7-5.4,6.6c-1.4,0.5-2.9,0.8-4.3,1c-0.4,0.1-0.8,0.1-1.2,0.2c-0.9,0.2-1.8,0.3-1.8,1.6c0,1.1,0.7,1.7,2,1.7
			c2.9,0.1,5.4,0.9,7.5,2.5C171.2,36.4,171.7,42.7,168.1,47.3z"/>
	</g>
	<g>
		<path class="st0" d="M114.1,27.9c-2.5-0.9-2.8,0.9-2.9,1.1l0,0.1c-0.4,1.5-0.7,2.9-1.1,4.4c-0.8,3.3-1.7,6.7-2.6,10
			c-0.7,2.6-1.7,5-2.9,7.2c-0.9,1.6-2.5,2.3-4.4,1.9c-1.7-0.4-2.7-1.6-2.9-3.7c-0.1-0.7-0.1-1.5,0.1-2.3c0.9-3.9,1.9-7.9,2.8-11.5
			c0.2-0.7,0.3-1.3,0.5-2c0.3-1.2,0.7-2.4,0.9-3.7c0.1-0.7-0.2-2-0.8-2.3c-0.5-0.2-0.9-0.3-1.3-0.1c-0.5,0.2-0.9,0.8-1.1,1.5
			c0,0.1-0.1,0.2-0.1,0.3c-0.1,0.1-0.1,0.2-0.1,0.3c-0.5,1.6-0.9,3.3-1.4,4.9c-1,3.7-2,7.5-3.1,11.2c-0.8,2.8-2,4.6-3.8,5.8
			c-1.5,1-3.1,1.1-4.5,0.5c-1.3-0.6-2.2-2-2.3-3.7c-0.1-0.8-0.1-1.7,0.1-2.5c0.6-2.9,1.3-5.8,1.9-8.6c0.4-1.8,0.8-3.6,1.2-5.4
			c0.2-0.9,0.6-1.2,1.6-1.2c1.1,0,2.2,0,3.3,0c0.5,0,1,0,1.6,0c0.6,0,1.4,0,1.9-0.5c0.3-0.3,0.4-0.7,0.4-1.3
			C94.8,27,93.5,27,92.6,27l-5.3,0c0.1,0,0.2-0.7,0.3-1c0.2-1,0.5-1.8,0.5-2.6c0-0.7-0.3-1.9-0.9-2.3c-0.4-0.2-0.8-0.3-1.2-0.1
			c-0.5,0.2-0.9,0.7-1.1,1.5c-0.2,0.6-0.3,1.1-0.5,1.7c-0.2,0.6-0.3,1.3-0.5,1.9c-0.2,0.5-0.5,0.9-0.6,0.9c-2.4,0.1-4.8,0.1-7.4,0
			l-1.8,0c0.8-3.3,1.6-6.4,3.9-8.7c1.8-1.8,3.7-1.9,5.8-0.5l0.1,0.1c0.8,0.5,1.8,1.2,2.7,0c0.9-1.2-0.1-2-0.8-2.6l-0.1-0.1
			c-1.4-1.1-3.3-1.7-5.2-1.5c-2,0.2-3.7,1.1-4.9,2.6c-1.7,2-3,4.5-4,7.2l-0.1,0.4c-0.6,1.6-1,3.1-2.5,3.3c-0.4,0.1-0.9,0-1.8,0
			c-0.2,0-0.3,0-0.5,0.2c-0.4,0.3-0.5,1.1-0.5,1.6c0,0.6,0.5,1.1,1.1,1.3c0.5,0.2,0.9,0.3,1.6,0.3c0.2,0,0.6-0.1,0.9-0.1
			c-0.4,1.5-0.8,3-1.1,4.5c-1,4.1-2,7.9-3.1,11.8c-0.4,1.5-1.4,3-2.7,4.3c-1.3,1.3-3.1,1.5-5,0.7c-2.1-0.9-2.3-2.8-2.2-3.9
			c0.2-2.9,0.6-5.4,1.2-7.7c0.3-1.2,0.5-1.8,0.7-2.4c0.2-0.8,0.1,0.1,0.5-2.1c0.1-0.4,0.2-1.3-0.2-1.8c-0.2-0.3-0.6-0.4-1-0.4
			c-2.1,0.1-2.4,3.1-2.9,4.6c-0.6,1.9-1.1,3.4-1.7,6.8c-0.6,3.4,0.4,6.9,2.5,8.8c1.4,1.2,3.9,2.4,8.1,1.2c0.1,0,0.3,0,0.5,0
			c0,0,0.1,0,0.2,0c-0.6,2.9-1.3,5.6-3.2,8c-1.9,2.3-4.1,2.7-6.8,1.3c-0.5-0.3-1.1-0.2-1.7-0.1c-0.3,0-1.7,1.1-0.3,2.7
			c1.8,1.9,4.4,2,7.1,1.2c4.3-1.4,6-5.1,7-7.8c0.7-2.1,3.4-11.8,3.7-12.6c0.4-1.2,2.6-10.5,3.3-13.8l0.4-2.1
			c0.2-0.9,0.7-1.3,1.7-1.2c1.4,0,2.8,0,4.2,0c0.9,0,1.7,0,2.6,0c0.3,0,0.7,0.1,1.1,0.1c0.1,0,0.3,0,0.4,0.1l-0.4,1.6
			c-0.3,1.4-0.6,2.7-1,4c-0.4,1.8-0.9,3.6-1.5,5.8c-0.8,3-0.9,5.4-0.3,7.7c0.9,3.5,3.7,5.7,7.3,5.7c0.1,0,0.3,0,0.4,0
			c2.5-0.1,4.6-1.2,6.7-3.6c2.2,4.1,5.6,5.2,10.4,3.5c-0.6,2.8-1.4,5.5-3.2,7.7c-1.8,2.3-4.1,2.7-6.6,1.1c-0.5-0.3-1.2-0.7-1.8-0.5
			c-0.3,0.1-0.6,0.4-0.8,0.8c-0.3,0.6,0.1,1.9,0.7,2.4c1.3,1.1,2.8,1.6,4.4,1.6c0.8,0,1.6-0.1,2.5-0.4c3.3-1,5.5-3.5,6.8-7.5
			c1.3-4.1,2.4-8.2,3.4-12.3l0.6-2.2c1.2-4.5,2.7-10.4,4.1-16.5C114.7,28.9,114.7,28.1,114.1,27.9z"/>
	</g>
	<g>
		<path class="st0" d="M48,33.4c-0.1,0-0.1,0-0.2,0c-0.4,0-0.7,0.2-1,0.4c-0.7,0.6-1.2,1.6-1.7,2.4c-0.4,0.8-0.8,1.5-1.1,2.3
			c-0.6,1.6-1.1,3.3-1.7,4.9c-1.4,3.6-3.8,7.2-7.6,8.3c-3.8,1-8.1-1.1-10.3-4.3c-2.2-3.3-2.8-7.4-2.5-11.3
			c0.5-7.1,3.4-14.1,8.2-19.5c3.5-3.9,8.4-7.1,13.7-7c2.9,0,6.1,1.2,7.4,3.8c1,2,0.8,4.3,0.2,6.5c-0.5,1.7-1.2,3.3-2.4,4.6
			c-1.2,1.3-3,2.1-4.8,1.8c-1.7-0.3-3.3-1.8-3.3-3.5c0-0.8,0.3-1.7-0.2-2.3c-0.5-0.7-1.5-0.7-2.2-0.2c-0.7,0.5-1,1.3-1.1,2.1
			c-0.3,2.6,1.3,5.2,3.6,6.4c2.3,1.2,5.3,1.1,7.6-0.1c2.4-1.2,4.2-3.2,5.3-5.6c2.3-4.8,1.6-11.2-2.7-14.4C49,7,46.1,6.3,43.3,6.4
			c-1.6,0.1-3.1,0.4-4.6,0.8c-0.7,0.2-1.5,0.5-2.2,0.8c-0.4,0.1-0.7,0.3-1.1,0.5c-0.2,0.1-0.5,0.2-0.7,0.3c-2.2,1.3-4.2,2.9-6,4.7
			c-1.8,1.8-3.4,3.8-4.8,5.9c-1.4,2.1-2.5,4.4-3.4,6.8c-0.9,2.4-1.5,4.8-1.8,7.4c-0.2,1.8-0.3,3.5-0.3,5.3c0.2,5.5,2,11.4,6.7,14.4
			c4.9,3.2,11.8,2.2,16.3-1.6c-0.8,4.5-2.2,9-4.2,13.1c-1.1,2.3-2.5,4.6-4.6,6c-1.6,1-3.7,1.4-5.6,0.8c-1.8-0.6-3.4-2.2-3.7-4.1
			c-0.3-1.8,0.7-3.8,2.4-4.6c0.5,0.6,1.1,0.9,1.9,0.9c1.4,0,2.5-1.1,2.5-2.4c0-0.7-0.3-1.4-0.8-1.8c-0.1-0.2-0.3-0.3-0.5-0.4
			c-0.3-0.2-0.7-0.3-1.1-0.3c-0.1,0-0.1,0-0.2,0c-0.1,0-0.3,0-0.4,0c-3.7,0.4-6.9,3.8-7.1,7.5c-0.2,3.7,2.4,7.4,6,8.4
			c4.1,1.2,8.6-0.8,11.5-3.9c2.8-3.2,4.3-7.3,5.5-11.3c1.6-5.1,2.8-10.2,4-15.4c0.4-1.7,0.7-3.4,1.1-5c0.2-0.9,0.4-1.8,0.6-2.7
			c0.1-0.7,0.6-1.7,0.4-2.4C48.8,33.7,48.4,33.5,48,33.4z"/>
	</g>
	<g>
		<path class="st0" d="M58.1,31.1c1.4,0,2.5-1.1,2.5-2.4c0-1.4-1.1-2.4-2.5-2.4c-1.4,0-2.5,1.1-2.5,2.4C55.7,30,56.8,31.1,58.1,31.1
			z"/>
	</g>
	<g>
		<path class="st0" d="M184.5,49.2c0.4,0,0.8,0,1.1-0.1c2.3-0.4,4.1-1.8,5.2-4.2c0.7-1.5,1.3-3.2,1.8-5.4c0.5-2.1,1-4.2,1.2-6.4
			c0.1-1.7-0.4-3.1-1.3-4.2c-1.1-1.2-2.7-1.8-4.5-1.8l-0.1,0c-3.2,0-5.9,1.9-6.9,4.9c-0.8,2.7-1.5,5.3-2,7.6c-0.2,1-0.5,2.3-0.4,3.6
			c0.1,2,0.9,3.7,2.2,4.7C181.9,48.7,183.1,49.2,184.5,49.2z M182.8,38.4c0.3-1.5,0.7-3,1.1-4.5l0.2-0.8c0.4-1.3,1.3-2.3,2.5-2.8
			c0.2-0.1,0.3-0.1,0.5-0.2c0.2,0,0.5-0.1,0.7-0.1c0.2,0,0.4,0,0.6,0c0.2,0,0.4,0.1,0.7,0.2c0.4,0.2,0.7,0.5,1,0.8
			c0.5,0.6,0.6,1.5,0.5,2.3c-0.6,3-1.4,6.1-2.4,9.3c-0.3,1-1.1,2.4-2.8,3c-0.9,0.3-1.8,0.2-2.4-0.3c-0.5-0.4-0.8-0.9-0.8-1.6
			C182.2,42,182.5,40.2,182.8,38.4z"/>
	</g>
	<g>
		<path class="st0" d="M177.9,56.4l10.8,0c1,0,1.9-0.6,1.9-1.5c0-0.9-0.8-1.5-1.9-1.5l-10.8,0c-1,0-1.9,0.6-1.9,1.5
			C176,55.9,176.8,56.4,177.9,56.4z"/>
	</g>
	<g>
		<path class="st0" d="M221.6,46.4c-0.2-2.1-1.3-4.1-3-5.5c-0.9-0.7-2.1-1.2-3.2-0.9c-1.2,0.3-2,1.7-1.7,2.9c0.3,1.2,1.8,2,3,1.6
			c0.2-0.1,0.4-0.1,0.5-0.1c0.1,0.1,0.2,0.2,0.3,0.3c1,1.9,0.5,4.6-1.2,5.9c-1.7,1.4-4.5,1.2-5.9-0.4c-0.6-0.7-0.9-1.5-1.2-2.3
			c-0.8-2.2-1.1-4.5-1.4-6.8c2.7-3.4,5.4-6.8,8.1-10.2c0.3-0.4,0.6-0.7,0.7-1.2c0.2-0.7-0.2-1.4-0.7-1.8c-0.5-0.4-1.5-0.6-2-0.2
			c-0.6,0.4-1.2,1.5-1.6,2c-1.1,1.4-2.3,2.9-3.4,4.3c-0.7,0.9-1.4,1.8-2.1,2.7c-0.3-2.1-0.5-4.1-0.9-6.1c-0.5-2.3-1.2-4.6-2.5-6.5
			c-0.7-1.1-1.6-2-2.8-2.5c-1.6-0.7-6.1-0.6-5.9,2.1c0,0.6,0.5,1.2,1.1,1.4c1.2,0.4,2.5-0.5,3.7-0.1c0.8,0.3,1.3,1.2,1.6,2
			c1.7,4.4,1.6,9.3,2.5,13.9c-0.5,0.6-1,1.2-1.5,1.9c-2.3,2.9-4.6,5.8-6.8,8.7c-0.5,0.6-1,1.3-1.2,2.1c-0.1,0.8,0.3,1.8,1,2
			c0.5,0.1,1-0.1,1.4-0.4c0.3-0.3,0.6-0.6,0.9-0.9c2.4-3,4.7-5.9,7.1-8.9c0.4,2.2,1,4.3,2.2,6.3c0.8,1.3,1.8,2.5,3.1,3.1
			c1.2,0.6,2.6,0.7,3.9,0.6c2.3-0.2,4.5-1.3,6-3C221.1,50.7,221.8,48.5,221.6,46.4z"/>
	</g>
</g>
</svg>
