<?xml version="1.0" encoding="utf-8"?>
<!-- Generator: Adobe Illustrator 22.1.0, SVG Export Plug-In . SVG Version: 6.00 Build 0)  -->
<svg version="1.1" id="Layer_1" xmlns="http://www.w3.org/2000/svg" xmlns:xlink="http://www.w3.org/1999/xlink" x="0px" y="0px"
	 viewBox="0 0 240 80" style="enable-background:new 0 0 240 80;" xml:space="preserve">
<style type="text/css">
	.st0{display:none;}
	.st1{fill:#999999;}
	.st2{fill:#555555;}
	.st3{clip-path:url(#SVGID_2_);fill:#777777;}
</style>
<g id="guides" class="st0">
</g>
<g>
	<path class="st1" d="M152.2,39.5V72c0,1.5,1.6,2.5,3,1.8l33-16.5c0.7-0.3,1.1-1.1,1.1-1.8V19.7l-36,18
		C152.6,38,152.2,38.7,152.2,39.5z"/>
	<g>
		<path class="st2" d="M59.1,38.8h-8.4v-15h8.4v1.5h-6.6v4.8h6.2v1.5h-6.2v5.5h6.6V38.8z"/>
		<path class="st2" d="M69.3,37.3L69.3,37.3c-0.9,1.1-2.1,1.7-3.6,1.7c-1.5,0-2.6-0.5-3.4-1.5c-0.8-1-1.2-2.4-1.2-4.3
			c0-1.9,0.4-3.3,1.2-4.3s2-1.5,3.4-1.5c1.5,0,2.7,0.6,3.5,1.7h0.1l-0.1-0.8l0-0.8v-4.6h1.7v15.9h-1.4L69.3,37.3z M65.9,37.5
			c1.2,0,2-0.3,2.5-0.9c0.5-0.6,0.8-1.7,0.8-3.1v-0.4c0-1.6-0.3-2.7-0.8-3.4c-0.5-0.7-1.4-1-2.5-1c-1,0-1.8,0.4-2.3,1.2
			c-0.5,0.8-0.8,1.9-0.8,3.3c0,1.4,0.3,2.5,0.8,3.2C64.1,37.2,64.8,37.5,65.9,37.5z"/>
		<path class="st2" d="M75.6,27.5v7.3c0,0.9,0.2,1.6,0.6,2.1c0.4,0.5,1.1,0.7,2,0.7c1.2,0,2-0.3,2.6-1c0.5-0.6,0.8-1.7,0.8-3.1v-5.9
			h1.7v11.2h-1.4l-0.2-1.5h-0.1c-0.3,0.6-0.8,1-1.5,1.3c-0.6,0.3-1.3,0.4-2.1,0.4c-1.4,0-2.4-0.3-3.1-1c-0.7-0.6-1-1.7-1-3.1v-7.3
			H75.6z"/>
		<path class="st2" d="M90.8,39c-1.6,0-2.9-0.5-3.8-1.5c-0.9-1-1.3-2.4-1.3-4.2c0-1.9,0.5-3.3,1.4-4.4c0.9-1,2.2-1.5,3.9-1.5
			c0.5,0,1.1,0.1,1.6,0.2c0.5,0.1,1,0.3,1.3,0.4l-0.5,1.4c-0.4-0.2-0.8-0.3-1.2-0.4c-0.4-0.1-0.8-0.1-1.2-0.1
			c-2.3,0-3.4,1.5-3.4,4.4c0,1.4,0.3,2.4,0.8,3.2c0.6,0.7,1.4,1.1,2.5,1.1c0.9,0,1.9-0.2,2.9-0.6v1.5C92.9,38.8,91.9,39,90.8,39z"/>
		<path class="st2" d="M102.7,38.8l-0.3-1.6h-0.1c-0.6,0.7-1.1,1.2-1.7,1.4c-0.6,0.2-1.3,0.4-2.1,0.4c-1.1,0-2-0.3-2.6-0.9
			c-0.6-0.6-0.9-1.4-0.9-2.4c0-2.3,1.8-3.5,5.4-3.6l1.9-0.1v-0.7c0-0.9-0.2-1.5-0.6-2c-0.4-0.4-1-0.6-1.8-0.6c-0.9,0-2,0.3-3.2,0.9
			l-0.5-1.3c0.6-0.3,1.2-0.5,1.8-0.7c0.7-0.2,1.3-0.3,2-0.3c1.3,0,2.3,0.3,3,0.9c0.6,0.6,1,1.5,1,2.9v7.7H102.7z M98.8,37.6
			c1.1,0,1.9-0.3,2.5-0.9c0.6-0.6,0.9-1.4,0.9-2.4v-1l-1.7,0.1c-1.4,0-2.3,0.3-2.9,0.6c-0.6,0.4-0.9,1-0.9,1.7
			c0,0.6,0.2,1.1,0.6,1.4C97.7,37.4,98.2,37.6,98.8,37.6z"/>
		<path class="st2" d="M111.4,39c-1.6,0-2.9-0.5-3.8-1.5c-0.9-1-1.3-2.4-1.3-4.2c0-1.9,0.5-3.3,1.4-4.4c0.9-1,2.2-1.5,3.9-1.5
			c0.5,0,1.1,0.1,1.6,0.2c0.5,0.1,1,0.3,1.3,0.4l-0.5,1.4c-0.4-0.2-0.8-0.3-1.2-0.4c-0.4-0.1-0.8-0.1-1.2-0.1
			c-2.3,0-3.4,1.5-3.4,4.4c0,1.4,0.3,2.4,0.8,3.2c0.6,0.7,1.4,1.1,2.5,1.1c0.9,0,1.9-0.2,2.9-0.6v1.5C113.5,38.8,112.6,39,111.4,39z
			"/>
		<path class="st2" d="M116.3,24.5c0-0.4,0.1-0.7,0.3-0.9s0.4-0.3,0.7-0.3c0.3,0,0.5,0.1,0.7,0.3c0.2,0.2,0.3,0.5,0.3,0.9
			c0,0.4-0.1,0.7-0.3,0.9c-0.2,0.2-0.4,0.3-0.7,0.3c-0.3,0-0.5-0.1-0.7-0.3C116.4,25.2,116.3,24.9,116.3,24.5z M118.1,38.8h-1.7
			V27.5h1.7V38.8z"/>
		<path class="st2" d="M130.9,33.1c0,1.8-0.5,3.3-1.4,4.3c-0.9,1-2.2,1.5-3.8,1.5c-1,0-1.9-0.2-2.7-0.7c-0.8-0.5-1.4-1.1-1.8-2
			s-0.6-1.9-0.6-3.1c0-1.8,0.5-3.3,1.4-4.3c0.9-1,2.2-1.5,3.8-1.5c1.6,0,2.8,0.5,3.7,1.6S130.9,31.4,130.9,33.1z M122.3,33.1
			c0,1.4,0.3,2.5,0.9,3.3c0.6,0.8,1.4,1.1,2.5,1.1c1.1,0,2-0.4,2.5-1.1c0.6-0.7,0.9-1.8,0.9-3.3c0-1.4-0.3-2.5-0.9-3.3
			c-0.6-0.7-1.4-1.1-2.6-1.1c-1.1,0-2,0.4-2.5,1.1C122.6,30.6,122.3,31.7,122.3,33.1z M124.3,25.8c0.3-0.4,0.7-0.9,1.1-1.5
			c0.4-0.6,0.7-1.1,0.9-1.6h2.1v0.2c-0.3,0.4-0.7,1-1.3,1.6c-0.6,0.6-1.1,1.2-1.5,1.5h-1.1V25.8z"/>
		<path class="st2" d="M141,38.8v-7.3c0-0.9-0.2-1.6-0.6-2c-0.4-0.5-1.1-0.7-2-0.7c-1.2,0-2,0.3-2.6,1c-0.5,0.6-0.8,1.7-0.8,3.1v5.9
			h-1.7V27.5h1.4l0.3,1.5h0.1c0.3-0.6,0.8-1,1.5-1.3c0.6-0.3,1.3-0.5,2.1-0.5c1.4,0,2.4,0.3,3.1,1c0.7,0.7,1,1.7,1,3.1v7.3H141z"/>
	</g>
	<g>
		<path class="st2" d="M58.3,43c-1.5,0-2.7,0.5-3.5,1.6c-0.9,1.1-1.3,2.5-1.3,4.4c0,2,0.4,3.4,1.2,4.5s2,1.5,3.6,1.5
			c0.7,0,1.3-0.1,2-0.2c0.6-0.1,1.3-0.3,2-0.5v2.2C61,57,59.6,57.2,58,57.2c-2.3,0-4.1-0.7-5.4-2.1c-1.3-1.4-1.9-3.4-1.9-6.1
			c0-1.7,0.3-3.1,0.9-4.4c0.6-1.2,1.5-2.2,2.6-2.9c1.2-0.7,2.5-1,4.1-1c1.6,0,3.1,0.3,4.5,1L62,44c-0.5-0.3-1.1-0.5-1.7-0.7
			S59,43,58.3,43z"/>
		<path class="st2" d="M75.6,50.9c0,2-0.5,3.5-1.5,4.6c-1,1.1-2.4,1.7-4.2,1.7c-1.1,0-2.1-0.3-3-0.8c-0.9-0.5-1.5-1.2-2-2.2
			c-0.5-1-0.7-2.1-0.7-3.3c0-2,0.5-3.5,1.5-4.6c1-1.1,2.4-1.7,4.3-1.7c1.8,0,3.1,0.6,4.2,1.7S75.6,49,75.6,50.9z M66.8,50.9
			c0,2.8,1,4.2,3.1,4.2c2,0,3.1-1.4,3.1-4.2c0-2.8-1-4.1-3.1-4.1c-1.1,0-1.9,0.4-2.3,1.1S66.8,49.6,66.8,50.9z"/>
		<path class="st2" d="M88.7,57h-2.6v-7.4c0-0.9-0.2-1.6-0.6-2.1c-0.4-0.5-1-0.7-1.8-0.7c-1.1,0-1.9,0.3-2.4,1
			c-0.5,0.6-0.8,1.7-0.8,3.2v6H78V44.9h2l0.4,1.6h0.1c0.4-0.6,0.9-1,1.6-1.3c0.7-0.3,1.4-0.5,2.2-0.5c2.9,0,4.4,1.5,4.4,4.4V57z"/>
		<path class="st2" d="M96.2,55.2c0.6,0,1.3-0.1,1.9-0.3v1.9c-0.3,0.1-0.7,0.2-1.1,0.3s-0.9,0.1-1.4,0.1c-2.4,0-3.7-1.3-3.7-3.9
			v-6.5h-1.7v-1.1l1.8-0.9l0.9-2.6h1.6v2.7H98v1.9h-3.4v6.5c0,0.6,0.2,1.1,0.5,1.4C95.3,55,95.7,55.2,96.2,55.2z"/>
		<path class="st2" d="M99.8,41.7c0-0.5,0.1-0.8,0.4-1.1c0.3-0.2,0.6-0.4,1.1-0.4c0.5,0,0.8,0.1,1.1,0.4s0.4,0.6,0.4,1.1
			c0,0.4-0.1,0.8-0.4,1s-0.6,0.4-1.1,0.4c-0.5,0-0.8-0.1-1.1-0.4C99.9,42.5,99.8,42.1,99.8,41.7z M102.5,57H100V44.9h2.6V57z"/>
		<path class="st2" d="M116.3,57h-2.6v-7.4c0-0.9-0.2-1.6-0.6-2.1c-0.4-0.5-1-0.7-1.8-0.7c-1.1,0-1.9,0.3-2.4,1
			c-0.5,0.6-0.8,1.7-0.8,3.2v6h-2.6V44.9h2l0.4,1.6h0.1c0.4-0.6,0.9-1,1.6-1.3c0.7-0.3,1.4-0.5,2.2-0.5c2.9,0,4.4,1.5,4.4,4.4V57z"
			/>
		<path class="st2" d="M127.8,57l-0.4-1.6h-0.1c-0.4,0.6-0.9,1-1.5,1.3s-1.4,0.5-2.3,0.5c-1.5,0-2.6-0.4-3.3-1.1
			c-0.7-0.7-1.1-1.8-1.1-3.3v-7.9h2.6v7.5c0,0.9,0.2,1.6,0.6,2.1c0.4,0.5,1,0.7,1.8,0.7c1.1,0,1.9-0.3,2.4-1
			c0.5-0.6,0.8-1.7,0.8-3.2v-6h2.6V57H127.8z"/>
		<path class="st2" d="M140.6,57l-0.5-1.7h-0.1c-0.6,0.7-1.2,1.2-1.8,1.5c-0.6,0.3-1.4,0.4-2.3,0.4c-1.2,0-2.1-0.3-2.8-1
			s-1-1.6-1-2.7c0-1.2,0.5-2.2,1.4-2.8s2.3-1,4.2-1l2.1-0.1V49c0-0.8-0.2-1.4-0.5-1.7c-0.4-0.4-0.9-0.6-1.7-0.6
			c-0.6,0-1.2,0.1-1.8,0.3s-1.1,0.4-1.6,0.6l-0.8-1.8c0.7-0.3,1.4-0.6,2.2-0.8c0.8-0.2,1.5-0.3,2.2-0.3c1.5,0,2.7,0.3,3.5,1
			c0.8,0.7,1.2,1.7,1.2,3.2V57H140.6z M136.7,55.3c0.9,0,1.7-0.3,2.2-0.8c0.6-0.5,0.8-1.3,0.8-2.2v-1l-1.6,0.1
			c-1.2,0-2.1,0.2-2.6,0.6s-0.8,0.9-0.8,1.7c0,0.5,0.2,1,0.5,1.3C135.6,55.1,136.1,55.3,136.7,55.3z"/>
	</g>
	<path class="st2" d="M156.8,6.8v29.1l32.5-16.2L159.8,4.9C158.4,4.2,156.8,5.2,156.8,6.8z"/>
	<g>
		<defs>
			<polygon id="SVGID_1_" points="152.2,38.2 152.2,75.3 189.3,56.8 			"/>
		</defs>
		<use xlink:href="#SVGID_1_"  style="overflow:visible;fill:#777777;"/>
		<clipPath id="SVGID_2_">
			<use xlink:href="#SVGID_1_"  style="overflow:visible;"/>
		</clipPath>
		<path class="st3" d="M152.2,39.5V72c0,1.5,1.6,2.5,3,1.8l33-16.5c0.7-0.3,1.1-1.1,1.1-1.8V19.7l-36,18
			C152.6,38,152.2,38.7,152.2,39.5z"/>
	</g>
</g>
</svg>
