<?xml version="1.0" encoding="utf-8"?>
<!-- Generator: Adobe Illustrator 22.1.0, SVG Export Plug-In . SVG Version: 6.00 Build 0)  -->
<svg version="1.1" id="Layer_1" xmlns="http://www.w3.org/2000/svg" xmlns:xlink="http://www.w3.org/1999/xlink" x="0px" y="0px"
	 viewBox="0 0 240 80" style="enable-background:new 0 0 240 80;" xml:space="preserve">
<style type="text/css">
	.st0{display:none;}
	.st1{fill:#555555;}
</style>
<g id="guides" class="st0">
</g>
<g>
	<path class="st1" d="M135.3,38.9c-0.5-0.1-0.9,0.1-1.3,0.5l-6.9,6.2l-6.9-6.2c-0.4-0.3-0.8-0.6-1.3-0.5c-0.7,0.2-1.1,0.8-1,1.4
		c0.1,0.3,0.3,0.5,0.5,0.7l7.5,6.6v5.8v6c0,0.6,0.5,1.2,1.2,1.2c0.6,0,1.2-0.5,1.2-1.2v-6l0-5.8l7.5-6.6c0.2-0.2,0.4-0.4,0.5-0.7
		C136.4,39.7,135.9,39,135.3,38.9z"/>
	<path class="st1" d="M15.3,41.1H9.1c-0.6,0-1.1-0.5-1.1-1.1c0-0.6,0.5-1.1,1.1-1.1h14.9c0.6,0,1.1,0.5,1.1,1.1
		c0,0.6-0.5,1.1-1.1,1.1h-6.2v18.1c0,0.7-0.6,1.2-1.2,1.2c-0.7,0-1.2-0.6-1.2-1.2V41.1z"/>
	<path class="st1" d="M26.2,49.6L26.2,49.6c0-6,4.4-11.2,11-11.2c6.5,0,10.9,5.1,10.9,11v0.1c0,5.9-4.4,11.1-11,11.1
		S26.2,55.5,26.2,49.6z M45.5,49.6L45.5,49.6c0-4.9-3.6-8.9-8.5-8.9c-4.9,0-8.4,3.9-8.4,8.8v0.1c0,4.9,3.6,8.9,8.5,8.9
		C42,58.4,45.5,54.5,45.5,49.6z"/>
	<path class="st1" d="M52.4,40.1c0-0.7,0.6-1.2,1.2-1.2h8c2.6,0,4.8,0.8,6.1,2.1c1,1,1.7,2.5,1.7,4.2v0.1c0,3.5-2.4,5.6-5.7,6.2
		l5.3,6.9c0.2,0.3,0.4,0.6,0.4,0.9c0,0.6-0.6,1.2-1.2,1.2c-0.5,0-0.9-0.3-1.1-0.6L61,52h-6.2v7.3c0,0.7-0.6,1.2-1.2,1.2
		c-0.6,0-1.2-0.6-1.2-1.2V40.1z M61.4,49.8c3.2,0,5.5-1.7,5.5-4.4v-0.1c0-2.6-2-4.2-5.5-4.2h-6.6v8.7H61.4z"/>
	<path class="st1" d="M75.4,40.1c0-0.7,0.6-1.2,1.2-1.2h8c2.6,0,4.8,0.8,6.1,2.1c1,1,1.7,2.5,1.7,4.2v0.1c0,3.5-2.4,5.6-5.7,6.2
		l5.3,6.9c0.2,0.3,0.4,0.6,0.4,0.9c0,0.6-0.6,1.2-1.2,1.2c-0.5,0-0.9-0.3-1.1-0.6L84,52h-6.2v7.3c0,0.7-0.6,1.2-1.2,1.2
		c-0.6,0-1.2-0.6-1.2-1.2V40.1z M84.4,49.8c3.2,0,5.5-1.7,5.5-4.4v-0.1c0-2.6-2-4.2-5.5-4.2h-6.6v8.7H84.4z"/>
	<path class="st1" d="M98.4,59.1v-19c0-0.7,0.6-1.2,1.2-1.2h13.3c0.6,0,1.1,0.5,1.1,1.1c0,0.6-0.5,1.1-1.1,1.1h-12.1v7.3h10.7
		c0.6,0,1.1,0.5,1.1,1.1c0,0.6-0.5,1.1-1.1,1.1h-10.7v7.5h12.3c0.6,0,1.1,0.5,1.1,1.1c0,0.6-0.5,1.1-1.1,1.1H99.6
		C98.9,60.3,98.4,59.7,98.4,59.1z"/>
	<path class="st1" d="M141.2,57.7c-0.3-0.2-0.5-0.5-0.5-0.9c0-0.7,0.5-1.2,1.2-1.2c0.3,0,0.6,0.1,0.7,0.3c2,1.7,4,2.5,6.8,2.5
		c2.9,0,4.8-1.5,4.8-3.6v-0.1c0-2-1.1-3.1-5.6-4.1c-4.9-1.1-7.2-2.7-7.2-6.2v-0.1c0-3.4,3-5.9,7.1-5.9c2.8,0,4.9,0.7,6.8,2.1
		c0.2,0.2,0.5,0.5,0.5,1c0,0.6-0.5,1.2-1.2,1.2c-0.3,0-0.5-0.1-0.7-0.2c-1.8-1.3-3.6-1.9-5.5-1.9c-2.8,0-4.6,1.5-4.6,3.5v0.1
		c0,2,1.1,3.2,5.8,4.2c4.8,1,7,2.8,7,6.1v0.1c0,3.7-3.1,6.1-7.3,6.1C146.2,60.6,143.6,59.6,141.2,57.7z"/>
	<path class="st1" d="M162.2,40.1c0-0.7,0.6-1.2,1.2-1.2h6.8c4.8,0,8,2.6,8,6.8v0.1c0,4.6-3.9,7-8.4,7h-5.2v6.5
		c0,0.7-0.6,1.2-1.2,1.2c-0.6,0-1.2-0.6-1.2-1.2V40.1z M170,50.5c3.6,0,5.9-1.9,5.9-4.7v-0.1c0-3.1-2.3-4.7-5.8-4.7h-5.4v9.4H170z"
		/>
	<path class="st1" d="M183.5,39.9c0-0.7,0.6-1.2,1.2-1.2c0.7,0,1.2,0.6,1.2,1.2v19.3c0,0.7-0.5,1.2-1.2,1.2c-0.6,0-1.2-0.6-1.2-1.2
		V39.9z"/>
	<path class="st1" d="M192.6,39.9c0-0.6,0.6-1.2,1.2-1.2h0.3c0.6,0,0.9,0.3,1.2,0.7l13,16.6V39.9c0-0.6,0.5-1.2,1.2-1.2
		c0.6,0,1.2,0.6,1.2,1.2v19.4c0,0.6-0.5,1.1-1.1,1.1h-0.1c-0.5,0-0.9-0.3-1.3-0.7l-13.3-17v16.6c0,0.6-0.5,1.2-1.2,1.2
		c-0.6,0-1.2-0.6-1.2-1.2V39.9z"/>
	<path class="st1" d="M216.3,59.1v-19c0-0.7,0.6-1.2,1.2-1.2h13.3c0.6,0,1.1,0.5,1.1,1.1c0,0.6-0.5,1.1-1.1,1.1h-12.1v7.3h10.7
		c0.6,0,1.1,0.5,1.1,1.1c0,0.6-0.5,1.1-1.1,1.1h-10.7v7.5H231c0.6,0,1.1,0.5,1.1,1.1c0,0.6-0.5,1.1-1.1,1.1h-13.5
		C216.8,60.3,216.3,59.7,216.3,59.1z"/>
	<path class="st1" d="M134.2,29.3c-0.5-0.1-0.9,0.1-1.3,0.5l-1.6,1.4L127,35c-0.4,0.4-0.7,0.7-0.6,1.2c0.1,0.7,0.7,1.2,1.3,1.1
		c0.3,0,0.6-0.2,0.8-0.4l2.7-2.5l3.5-3c0.2-0.2,0.4-0.4,0.5-0.7C135.3,30.1,134.9,29.5,134.2,29.3z"/>
	<path class="st1" d="M134.2,19.4c-0.5-0.1-0.9,0.1-1.3,0.5l-1.6,1.4l-4.4,3.8c-0.4,0.4-0.7,0.7-0.6,1.2c0.1,0.7,0.7,1.2,1.3,1.1
		c0.3,0,0.6-0.2,0.8-0.4l2.7-2.5l3.5-3c0.2-0.2,0.4-0.4,0.5-0.7C135.3,20.2,134.9,19.5,134.2,19.4z"/>
</g>
</svg>
